# xmcd
#
# Track frame offsets:
#	182
#	18170
#	38355
#	52567
#	68292
#	84812
#	98335
#	114615
#	130345
#	149365
#	163962
#	178082
#	195467
#	212467
#	228645
#	249370
#	266777
#	280692
#
# Disc length: 3991 seconds
#
# Revision: 0
# Processed by: cddbd v1.5.2PL0 Copyright (c) Steve Scherf et al.
# Submitted via: EasyCDDAExtractor 10.0.3.1
#
DISCID=e00f9512
DTITLE=Various Artist - 70'S FEVER
DYEAR=1900
DGENRE=
TTITLE0=CHRIS NORMAN and SUZIE QUATRO - Stumblin In
TTITLE1=DRUPI - Piccola E Fragile
TTITLE2=ERUPTION - I Can't Stand The Rain
TTITLE3=BONEY M - Daddy Cool
TTITLE4=A LA CARTE - Doo Wah Diddy Diddy
TTITLE5=MIDDLE OF THE ROAD - Chirpy Chirpy Cheep Cheep
TTITLE6=THE TEENS - Gimmie Gimmie Gimmie Your Love
TTITLE7=SMOKIE - Living Next Door To Alice
TTITLE8=PRECIOUS WILSON - Hold On I'm Coming
TTITLE9=SWEET - Blockbuster
TTITLE10=BAY CITY ROLLERS - Saturday Night
TTITLE11=GILLA - Bend Me Shape Me
TTITLE12=VILLAGE PEOPLE - Y.M.C.A
TTITLE13=LA BIONDA - One For You One For Me
TTITLE14=BACCARA - Yes Sir I Can Boogie
TTITLE15=AMANDA LEAR - Follow Me
TTITLE16=DSCHINGHIS KHAN - Dschinghis Khan
TTITLE17=EVELYN "CHAMPAGNE" KING - Shame
EXTD=
EXTT0=
EXTT1=
EXTT2=
EXTT3=
EXTT4=
EXTT5=
EXTT6=
EXTT7=
EXTT8=
EXTT9=
EXTT10=
EXTT11=
EXTT12=
EXTT13=
EXTT14=
EXTT15=
EXTT16=
EXTT17=
PLAYORDER=
